<svg xmlns="http://www.w3.org/2000/svg" xmlns:xlink="http://www.w3.org/1999/xlink" width="124px" height="70px" viewBox="0 0 124 70" version="1.1" preserveAspectRatio="xMidYMid"><title>Matomo</title><defs><path d="M51.0250262,34.3086533 L51.041667,34.2980637 L50.7209549,33.8094313 C50.6725454,33.7353044 50.624136,33.6581519 50.5742136,33.5870506 L28.5237294,0 L0,21.251729 L20.849326,53.3426261 C20.9385809,53.478778 21.0232974,53.6164418 21.1155778,53.7525937 L21.2260115,53.9220262 L21.2381139,53.9144623 C24.469442,58.4982279 29.7944763,61.4996113 35.8274987,61.4996113 C45.6878891,61.4996113 53.6814922,53.5075206 53.6814922,43.6456172 C53.6814922,40.2176264 52.6996889,37.0271439 51.0250262,34.3086533" id="path-1"/><path d="M31.2407071,9.35511759 C31.2407071,-0.505273201 23.2471045,-8.49887625 13.3867136,-8.49887625 C3.52632264,-8.49887625 -4.46728047,-0.505273201 -4.46728047,9.35511759 C-4.46728047,12.9797718 -3.38109436,16.347251 -1.52489591,19.1625606 C-1.52640889,19.1625606 -1.52640889,19.1625606 -1.52640889,19.1610477 L-1.53548577,19.1625606 L-15.0901194,-5.32907052e-15 L-15.1097856,-5.32907052e-15 C-18.2548843,-5.09357715 -23.8703751,-8.49887625 -30.2952109,-8.49887625 C-36.7200466,-8.49887625 -42.3355377,-5.09357715 -45.4806362,-5.32907052e-15 L-45.4987898,-5.32907052e-15 L-67.0893846,33.6490751 C-63.8792359,28.9064662 -58.4513313,25.7916235 -52.29426,25.7916235 C-45.8134509,25.7916235 -40.1571144,29.2559216 -37.0286566,34.4221128 L-37.0059647,34.4221128 L-22.8976486,54.2276106 L-22.8749567,54.2276106 C-19.6239626,58.6313538 -14.4123874,61.4996113 -8.51854238,61.4996113 C-2.62318437,61.4996113 2.58839076,58.6313538 5.83938467,54.2276106 L5.86358939,54.2276106 L6.00730468,54.0052302 C6.37491381,53.4878544 6.71983072,52.9568637 7.03146603,52.4016683 L28.1697356,19.3667877 C28.1697356,19.3667877 28.1697356,19.3667877 28.1697356,19.3683005 C30.1061121,16.5121456 31.2407071,13.066001 31.2407071,9.35511759 M1.14821086,22.3318638 C1.25108065,22.4301954 1.35848887,22.5239886 1.46438461,22.6192946 C1.35848887,22.5239886 1.25259362,22.4301954 1.14821086,22.3318638 M2.73513153,23.6600969 C2.85312962,23.7478389 2.96810176,23.8386066 3.08761235,23.923323 C2.96810176,23.8386066 2.85312962,23.7478389 2.73513153,23.6600969 M6.653268,25.8854167 C6.80152175,25.9474413 6.9573394,25.9958507 7.10861861,26.0533369 C6.9573394,25.9958507 6.80152175,25.9474413 6.653268,25.8854167 M8.5745162,26.5344053 C8.78630719,26.5949171 9.00112413,26.6478649 9.21594059,26.6977871 C9.00112413,26.6493776 8.78630719,26.5949171 8.5745162,26.5344053 M10.6606589,26.9806795 C10.8679115,27.0124482 11.0736515,27.050268 11.28393,27.0759855 C11.0736515,27.050268 10.8694245,27.0124482 10.6606589,26.9806795 M25.1275072,22.7826764 C25.2863503,22.6434993 25.4436809,22.5012967 25.5979861,22.3560685 C25.4436809,22.5012967 25.2878633,22.6434993 25.1275072,22.7826764 M15.4668054,27.0790111 C15.6785964,27.0548064 15.8873619,27.013961 16.0976404,26.9837051 C15.8873619,27.013961 15.6801089,27.0548064 15.4668054,27.0790111 M17.4984873,26.7144278 C17.7254066,26.66148 17.9523254,26.602481 18.1762192,26.5404565 C17.9523254,26.602481 17.7269191,26.66148 17.4984873,26.7144278 M19.5165543,26.1062846 C19.7071665,26.0366961 19.9023167,25.9731588 20.0899035,25.8960063 C19.9023167,25.9731588 19.7086795,26.0366961 19.5165543,26.1062846 M23.5663037,24.0125778 C23.7175834,23.9081951 23.8612987,23.7917099 24.0095525,23.681276 C23.8612987,23.7917099 23.7175834,23.9066823 23.5663037,24.0125778 M26.5949173,21.3379582 C26.7204793,21.200294 26.8505792,21.0656553 26.9716028,20.9234527 C26.8505792,21.0656553 26.7204793,21.200294 26.5949173,21.3379582" id="path-3"/><filter x="-7.1%" y="-7.1%" width="114.2%" height="120.0%" filterUnits="objectBoundingBox" id="filter-4"><feOffset dx="0" dy="2" in="SourceAlpha" result="shadowOffsetOuter1"/><feGaussianBlur stdDeviation="2" in="shadowOffsetOuter1" result="shadowBlurOuter1"/><feColorMatrix values="0 0 0 0 0 0 0 0 0 0 0 0 0 0 0 0 0 0 0.5 0" type="matrix" in="shadowBlurOuter1"/></filter></defs><g><g><path d="M121.244381,42.8075295 L121.261022,42.7969399 L120.94031,42.3083075 C120.8919,42.2341806 120.843491,42.1570281 120.793569,42.0859268 L98.7430848,8.49887625 L70.2193554,29.7506052 L91.0686809,61.8415024 C91.1579358,61.9776542 91.2426523,62.1153181 91.3349327,62.25147 L91.4453669,62.4209025 L91.4574693,62.4133386 C94.6887969,66.9971041 100.013832,69.9984875 106.046854,69.9984875 C115.907245,69.9984875 123.900848,62.0063969 123.900848,52.1444935 C123.900848,48.7165027 122.919044,45.5260202 121.244381,42.8075295" fill="#95C748"/><path d="M35.7079876,52.1444935 C35.7079876,42.2841028 27.7143846,34.2904998 17.8539938,34.2904998 C7.99360305,34.2904998 0,42.2841028 0,52.1444935 C0,62.0063969 7.99360305,70 17.8539938,70 C27.7143846,70 35.7079876,62.0048844 35.7079876,52.1444935" fill="#35BFC0"/><path d="M83.6060685,0 C93.4664594,0 101.460063,7.99360305 101.460063,17.8539938 C101.460063,21.5648773 100.325467,25.0110218 98.389091,27.8671768 L98.389091,27.8671768 L98.389091,27.865664 L77.2508214,60.9005445 C76.9391861,61.4557399 76.5942687,61.9867306 76.2266601,62.5041065 L76.2266601,62.5041065 L76.0829448,62.7264868 L76.0587401,62.7264868 C72.8077457,67.1302301 67.5961705,69.9984875 61.7008125,69.9984875 C55.8069675,69.9984875 50.5953924,67.1302301 47.3443985,62.7264868 L47.3443985,62.7264868 L47.3217066,62.7264868 L33.2133905,42.9209891 L33.1906986,42.9209891 C30.0622408,37.7547978 24.4059043,34.2904998 17.9250952,34.2904998 C11.7680239,34.2904998 6.34011933,37.4053424 3.12997062,42.1479513 L3.12997062,42.1479513 L24.7205654,8.49887625 L24.738719,8.49887625 C27.8838175,3.40529911 33.4993085,0 39.9241443,0 C46.3489801,0 51.9644711,3.40529911 55.1095698,8.49887625 L55.1095698,8.49887625 L55.129236,8.49887625 L68.6838696,27.6614368 L68.692946,27.659924 C68.692946,27.6614368 68.692946,27.6614368 68.694459,27.6614368 C66.838261,24.8461273 65.7520749,21.4786481 65.7520749,17.8539938 C65.7520749,7.99360305 73.745678,0 83.6060685,0 Z" fill="#3253A0"/><path d="M121.244382,42.8075295 L121.261022,42.7969399 L120.94031,42.3083075 C120.891901,42.2341806 120.843491,42.1570281 120.793569,42.0859268 L98.7430848,8.49887625 L70.2193554,29.7506052 L91.0686814,61.8415024 C91.1579363,61.9776542 91.2426528,62.1153181 91.3349332,62.25147 L91.4453669,62.4209025 L91.4574693,62.4133386 C94.6887974,66.9971041 100.013832,69.9984875 106.046854,69.9984875 C115.907245,69.9984875 123.900848,62.0063969 123.900848,52.1444935 C123.900848,48.7165027 122.919044,45.5260202 121.244382,42.8075295" fill="#95C748"/><g transform="translate(70.219355, 8.498876)"><mask id="mask-2" fill="white"><use xlink:href="#path-1"/></mask><g mask="url(#mask-2)" fill="black" fill-opacity="1"><use filter="url(#filter-4)" xlink:href="#path-3"/></g></g><path d="M101.388961,17.8539938 C101.388961,7.99360305 93.3953583,2.84217094e-14 83.5349673,2.84217094e-14 C73.6745764,2.84217094e-14 65.6809738,7.99360305 65.6809738,17.8539938 C65.6809738,27.7143846 73.6745764,35.7079876 83.5349673,35.7079876 C93.3953583,35.7079876 101.388961,27.7143846 101.388961,17.8539938" fill="#F38334"/><path d="M83.5349673,35.7095004 C77.2977179,35.7095004 71.8153529,32.5069157 68.6233578,27.6614368 L68.612768,27.6614368 L55.0581349,8.49887625 L55.0384681,8.49887625 C51.8933699,3.40681191 46.2778788,0.00151279392 39.853043,0.00151279392 C33.4282072,0.00151279392 27.8127162,3.40681191 24.6676176,8.49887625 L24.6494641,8.49887625 L3.0603821,42.1479513 C6.26901798,37.4068552 11.6984354,34.2920126 17.8539938,34.2920126 C24.334803,34.2920126 29.9926522,37.7547978 33.1211101,42.9209891 L33.1438019,42.9209891 L47.252118,62.7264868 L47.2732971,62.7264868 C50.5258042,67.1287171 55.7373793,70 61.6312243,70 C67.5250694,70 72.7366445,67.1302301 75.9876384,62.7264868 L76.0118431,62.7264868 L76.1555584,62.5025935 C76.5231676,61.9867306 76.8680845,61.4557399 77.1812327,60.9020575 L98.3179893,27.8671768 C95.1063279,32.5976834 89.6844748,35.7095004 83.5349673,35.7095004" fill="#3152A0"/></g></g></svg>