<?xml version="1.0" encoding="utf-8"?>

<!DOCTYPE svg PUBLIC "-//W3C//DTD SVG 1.1//EN" "http://www.w3.org/Graphics/SVG/1.1/DTD/svg11.dtd">
<!-- Uploaded to: SVG Repo, www.svgrepo.com, Generator: SVG Repo Mixer Tools -->
<svg version="1.1" id="_x32_" xmlns="http://www.w3.org/2000/svg" xmlns:xlink="http://www.w3.org/1999/xlink" 
	 width="800px" height="800px" viewBox="0 0 512 512"  xml:space="preserve">
<style type="text/css">
<![CDATA[
	.st0{fill:#000000;}
]]>
</style>
<g>
	<path class="st0" d="M331.188,80.469H19.5C8.781,80.469,0,89.25,0,99.984v255.641c0,10.719,8.781,19.5,19.5,19.5h90.438v37.719
		H84.516v18.688h181.672v-18.688H240.75v-37.719h90.438c10.719,0,19.5-8.781,19.5-19.5V99.984
		C350.688,89.25,341.906,80.469,331.188,80.469z M325.313,341.969H25.359V105.828h299.953V341.969z"/>
	<path class="st0" d="M492.094,80.469H391.469c-10.984,0-19.906,8.906-19.906,19.906v311.25c0,11,8.922,19.906,19.906,19.906
		h100.625c11,0,19.906-8.906,19.906-19.906v-311.25C512,89.375,503.094,80.469,492.094,80.469z M441.781,343.766
		c-12.594,0-22.813-10.219-22.813-22.813c0-12.609,10.219-22.828,22.813-22.828s22.828,10.219,22.828,22.828
		C464.609,333.547,454.375,343.766,441.781,343.766z M477.781,201.594h-70.219v-14.047h70.219V201.594z M477.781,159.453h-70.219
		v-14.031h70.219V159.453z"/>
</g>
</svg>