<?xml version="1.0" encoding="iso-8859-1"?>
<!-- Uploaded to: SVG Repo, www.svgrepo.com, Generator: SVG Repo Mixer Tools -->
<!DOCTYPE svg PUBLIC "-//W3C//DTD SVG 1.1//EN" "http://www.w3.org/Graphics/SVG/1.1/DTD/svg11.dtd">
<svg fill="#000000" height="800px" width="800px" version="1.1" id="Capa_1" xmlns="http://www.w3.org/2000/svg" xmlns:xlink="http://www.w3.org/1999/xlink" 
	 viewBox="0 0 291.061 291.061" xml:space="preserve">
<path d="M286.061,131.482h-14.166V72.961c0-38.008-30.924-68.931-68.936-68.931c-38.008,0-68.93,30.922-68.93,68.931V218.1
	c0,25.326-20.603,45.931-45.928,45.931c-25.329,0-45.936-20.605-45.936-45.931v-60.112h14.166c2.761,0,5-2.238,5-5V82.603
	c0-2.761-2.239-5-5-5h-4.686V51.306c0-2.761-2.239-5-5-5H14.686c-2.761,0-5,2.239-5,5v26.298H5c-2.761,0-5,2.239-5,5v70.384
	c0,2.762,2.239,5,5,5h14.166V218.1c0,38.009,30.924,68.931,68.936,68.931c38.007,0,68.928-30.922,68.928-68.931V72.961
	c0-25.326,20.604-45.931,45.93-45.931c25.329,0,45.936,20.604,45.936,45.931v58.521h-14.166c-2.761,0-5,2.239-5,5v70.385
	c0,2.762,2.239,5,5,5h4.686v26.297c0,2.762,2.239,5,5,5h31.961c2.761,0,5-2.238,5-5v-26.297h4.686c2.761,0,5-2.238,5-5v-70.385
	C291.061,133.721,288.822,131.482,286.061,131.482z M19.686,56.306h21.961v21.298H19.686V56.306z M271.375,233.164h-21.961v-21.297
	h21.961V233.164z"/>
</svg>