<?xml version="1.0" encoding="utf-8"?>

<!DOCTYPE svg PUBLIC "-//W3C//DTD SVG 1.1//EN" "http://www.w3.org/Graphics/SVG/1.1/DTD/svg11.dtd">
<!-- Uploaded to: SVG Repo, www.svgrepo.com, Generator: SVG Repo Mixer Tools -->
<svg height="800px" width="800px" version="1.1" id="_x32_" xmlns="http://www.w3.org/2000/svg" xmlns:xlink="http://www.w3.org/1999/xlink" 
	 viewBox="0 0 512 512"  xml:space="preserve">
<style type="text/css">
	.st0{fill:#000000;}
</style>
<g>
	<path class="st0" d="M360.189,0H151.812C118.96,0,92.328,26.631,92.328,59.484v357.344c0,52.566,42.607,95.172,95.172,95.172H324.5
		c52.566,0,95.172-42.607,95.172-95.172V59.484C419.672,26.631,393.042,0,360.189,0z M256,481.229
		c-8.115,0-14.688-6.574-14.688-14.688s6.574-14.689,14.688-14.689c8.115,0,14.688,6.574,14.688,14.689S264.115,481.229,256,481.229
		z M218.23,22.384h75.532c4.255,0,7.697,3.452,7.697,7.697c0,4.246-3.442,7.697-7.697,7.697H218.23c-4.254,0-7.697-3.45-7.697-7.697
		C210.533,25.836,213.976,22.384,218.23,22.384z M125.902,416.828V71.344h260.197v345.483c0,3.844-0.401,7.59-1.074,11.238h-258.05
		C126.304,424.418,125.902,420.672,125.902,416.828z"/>
</g>
</svg>