<?xml version="1.0" encoding="utf-8"?>

<!DOCTYPE svg PUBLIC "-//W3C//DTD SVG 1.1//EN" "http://www.w3.org/Graphics/SVG/1.1/DTD/svg11.dtd">
<!-- Uploaded to: SVG Repo, www.svgrepo.com, Generator: SVG Repo Mixer Tools -->
<svg version="1.1" id="_x32_" xmlns="http://www.w3.org/2000/svg" xmlns:xlink="http://www.w3.org/1999/xlink" 
	 width="800px" height="800px" viewBox="0 0 512 512"  xml:space="preserve">
<style type="text/css">
<![CDATA[
	.st0{fill:#000000;}
]]>
</style>
<g>
	<path class="st0" d="M485.234,116.625H261.906l69.719-69.719c1.75-1.75,1.75-4.563,0-6.313l-17.422-17.438
		c-1.734-1.75-4.563-1.75-6.297,0l-89.688,89.688l-89.656-89.688c-1.75-1.75-4.563-1.75-6.313,0l-17.438,17.438
		c-1.75,1.75-1.75,4.563,0,6.313l69.75,69.719H26.766c-14.781,0-26.766,12-26.766,26.781v319.969
		c0,14.781,11.984,26.781,26.766,26.781h458.469c14.781,0,26.766-12,26.766-26.781V143.406
		C512,128.625,500.016,116.625,485.234,116.625z M383.594,421.188c0,8.531-6.906,15.438-15.422,15.438H66.844
		c-8.531,0-15.438-6.906-15.438-15.438V191.875c0-8.531,6.906-15.438,15.438-15.438h301.328c8.516,0,15.422,6.906,15.422,15.438
		V421.188z M473.188,333.813h-45.125v-45.125h45.125V333.813z M449.047,234.156c-13.906,0-25.172-11.281-25.172-25.188
		s11.266-25.188,25.172-25.188s25.172,11.281,25.172,25.188S462.953,234.156,449.047,234.156z"/>
</g>
</svg>