<?xml version="1.0" encoding="utf-8"?>

<!DOCTYPE svg PUBLIC "-//W3C//DTD SVG 1.1//EN" "http://www.w3.org/Graphics/SVG/1.1/DTD/svg11.dtd">
<!-- Uploaded to: SVG Repo, www.svgrepo.com, Generator: SVG Repo Mixer Tools -->
<svg height="800px" width="800px" version="1.1" id="_x32_" xmlns="http://www.w3.org/2000/svg" xmlns:xlink="http://www.w3.org/1999/xlink" 
	 viewBox="0 0 512 512"  xml:space="preserve">
<style type="text/css">
	.st0{fill:#000000;}
</style>
<g>
	<path class="st0" d="M464,0H48C21.492,0,0,21.492,0,48v416c0,26.508,21.492,48,48,48h416c26.507,0,48-21.492,48-48V48
		C512,21.492,490.507,0,464,0z M444.664,35c10.492,0,19,8.508,19,19s-8.508,19-19,19c-10.493,0-19-8.508-19-19
		S434.171,35,444.664,35z M374.164,35c10.492,0,19,8.508,19,19s-8.508,19-19,19c-10.493,0-19-8.508-19-19S363.671,35,374.164,35z
		 M303.664,35c10.492,0,19,8.508,19,19s-8.508,19-19,19c-10.493,0-19-8.508-19-19S293.171,35,303.664,35z M472,464
		c0,4.406-3.586,8-8,8H48c-4.414,0-8-3.594-8-8V104h432V464z"/>
	<path class="st0" d="M97.484,328.656h16.031c0.977,0,1.625-0.633,1.93-1.562l13.774-44h0.336l13.43,44
		c0.328,0.93,0.985,1.562,1.946,1.562h16.187c0.985,0,1.633-0.633,1.938-1.562l25.117-72.656c0.313-0.93-0.187-1.562-1.304-1.562
		h-19.914c-1.149,0-1.789,0.484-2.102,1.562l-12.313,45.094h-0.312l-13.766-45.094c-0.336-1.078-0.977-1.562-2.11-1.562H122.75
		c-1.141,0-1.953,0.484-2.258,1.562l-13.454,45.094h-0.328l-12.945-45.094c-0.329-1.078-0.954-1.562-2.266-1.562H71.594
		c-0.992,0-1.454,0.633-1.157,1.562l25.118,72.656C95.874,328.023,96.523,328.656,97.484,328.656z"/>
	<path class="st0" d="M224.086,328.656h16.054c0.962,0,1.618-0.633,1.93-1.562l13.766-44h0.328l13.43,44
		c0.336,0.93,0.984,1.562,1.953,1.562h16.18c0.984,0,1.625-0.633,1.953-1.562l25.102-72.656c0.313-0.93-0.172-1.562-1.297-1.562
		h-19.906c-1.156,0-1.805,0.484-2.117,1.562l-12.313,45.094h-0.32l-13.758-45.094c-0.336-1.078-0.977-1.562-2.102-1.562h-13.61
		c-1.133,0-1.946,0.484-2.258,1.562l-13.446,45.094h-0.32l-12.962-45.094c-0.312-1.078-0.969-1.562-2.258-1.562h-19.914
		c-0.993,0-1.469,0.633-1.133,1.562l25.094,72.656C222.484,328.023,223.133,328.656,224.086,328.656z"/>
	<path class="st0" d="M350.882,328.656h16.047c0.953,0,1.602-0.633,1.922-1.562l13.766-44h0.336l13.43,44
		c0.328,0.93,0.969,1.562,1.938,1.562h16.195c0.977,0,1.625-0.633,1.946-1.562l25.117-72.656c0.297-0.93-0.187-1.562-1.297-1.562
		h-19.938c-1.133,0-1.781,0.484-2.094,1.562l-12.305,45.094h-0.32l-13.766-45.094c-0.336-1.078-0.977-1.562-2.102-1.562H376.14
		c-1.133,0-1.937,0.484-2.25,1.562l-13.461,45.094h-0.305l-12.954-45.094c-0.335-1.078-0.961-1.562-2.266-1.562h-19.922
		c-0.969,0-1.453,0.633-1.141,1.562l25.118,72.656C349.266,328.023,349.914,328.656,350.882,328.656z"/>
</g>
</svg>