<?xml version="1.0" encoding="iso-8859-1"?>
<!-- Uploaded to: SVG Repo, www.svgrepo.com, Generator: SVG Repo Mixer Tools -->
<!DOCTYPE svg PUBLIC "-//W3C//DTD SVG 1.1//EN" "http://www.w3.org/Graphics/SVG/1.1/DTD/svg11.dtd">
<svg fill="#000000" version="1.1" id="Capa_1" xmlns="http://www.w3.org/2000/svg" xmlns:xlink="http://www.w3.org/1999/xlink" 
	 width="800px" height="800px" viewBox="0 0 601.799 601.799"
	 xml:space="preserve">
<g>
	<g>
		<path d="M300.899,0C134.716,0,0,134.716,0,300.898c0,166.184,134.716,300.9,300.899,300.9c166.183,0,300.9-134.717,300.9-300.9
			C601.799,134.716,467.082,0,300.899,0z M508.539,160.932c3.305,4.905,2.01,11.561-2.896,14.868l-47.365,31.928
			c-1.836,1.236-3.916,1.83-5.977,1.83c-3.441,0-6.82-1.656-8.889-4.725c-3.305-4.905-2.01-11.561,2.895-14.869l47.365-31.928
			C498.58,154.732,505.234,156.029,508.539,160.932z M473.639,128.162c1.793,1.79,1.793,4.7,0,6.49l-40.389,40.389
			c-0.896,0.896-2.072,1.343-3.246,1.343c-1.176,0-2.352-0.447-3.248-1.343c-1.793-1.79-1.793-4.7,0-6.49l40.391-40.389
			C468.941,126.369,471.846,126.369,473.639,128.162z M331.285,120.806l10.914-56.068c0.486-2.488,2.895-4.106,5.387-3.629
			c2.484,0.484,4.111,2.895,3.629,5.383l-10.916,56.068c-0.428,2.191-2.35,3.715-4.5,3.715c-0.295,0-0.586-0.027-0.885-0.086
			C332.426,125.705,330.799,123.293,331.285,120.806z M285.599,61.2c0-8.448,6.848-15.3,15.3-15.3c8.453,0,15.3,6.852,15.3,15.3
			v87.721c0,8.449-6.848,15.3-15.3,15.3c-8.452,0-15.3-6.852-15.3-15.3V61.2z M160.935,93.26c4.905-3.302,11.561-2.011,14.865,2.895
			l31.928,47.363c3.305,4.905,2.01,11.561-2.895,14.869c-1.836,1.236-3.917,1.83-5.977,1.83c-3.442,0-6.821-1.655-8.889-4.725
			l-31.931-47.363C154.732,103.223,156.026,96.567,160.935,93.26z M128.162,128.162c1.793-1.793,4.697-1.793,6.49,0l40.389,40.389
			c1.793,1.79,1.793,4.7,0,6.49c-0.896,0.896-2.071,1.343-3.247,1.343c-1.175,0-2.35-0.447-3.247-1.343l-40.386-40.389
			C126.369,132.859,126.369,129.952,128.162,128.162z M92.125,162.626c3.262-4.93,9.911-6.279,14.844-3.014l47.623,31.542
			c4.93,3.265,6.282,9.911,3.014,14.844c-2.06,3.112-5.465,4.798-8.938,4.798c-2.032,0-4.085-0.575-5.906-1.784l-47.62-31.542
			C90.208,174.206,88.859,167.56,92.125,162.626z M75.206,207.413c0.967-2.344,3.654-3.455,5.998-2.484l52.77,21.86
			c2.344,0.97,3.455,3.654,2.485,5.998c-0.734,1.769-2.442,2.833-4.244,2.833c-0.584,0-1.181-0.113-1.753-0.352l-52.77-21.861
			C75.346,212.44,74.235,209.757,75.206,207.413z M61.111,254.219c0.486-2.488,2.901-4.104,5.385-3.629l56.068,10.915
			c2.485,0.483,4.113,2.895,3.629,5.383c-0.428,2.191-2.35,3.715-4.501,3.715c-0.293,0-0.584-0.028-0.884-0.086L64.74,259.601
			C62.252,259.115,60.625,256.707,61.111,254.219z M45.9,300.898c0-8.448,6.848-15.299,15.3-15.299h87.721
			c8.452,0,15.3,6.851,15.3,15.299c0,8.449-6.849,15.301-15.3,15.301H61.2C52.748,316.199,45.9,309.352,45.9,300.898z
			 M65.992,353.213c-2.136,0-4.048-1.502-4.492-3.678c-0.505-2.484,1.098-4.908,3.583-5.414l55.977-11.373
			c2.466-0.496,4.908,1.098,5.413,3.582s-1.099,4.908-3.583,5.414l-55.977,11.371C66.607,353.18,66.298,353.213,65.992,353.213z
			 M81.203,396.869c-0.575,0.238-1.172,0.352-1.753,0.352c-1.802,0-3.51-1.066-4.244-2.832c-0.97-2.344,0.141-5.027,2.485-5.998
			l52.772-21.861c2.35-0.967,5.031,0.145,5.998,2.484c0.97,2.346-0.141,5.029-2.484,5.998L81.203,396.869z M102.149,445.594
			c-3.442,0-6.821-1.658-8.889-4.725c-3.305-4.904-2.011-11.561,2.895-14.869l47.366-31.928c4.908-3.305,11.564-2.006,14.866,2.895
			c3.305,4.906,2.01,11.561-2.895,14.869l-47.366,31.928C106.289,445,104.208,445.594,102.149,445.594z M131.406,474.982
			c-1.175,0-2.35-0.447-3.247-1.344c-1.793-1.789-1.793-4.699,0-6.49l40.389-40.389c1.793-1.793,4.697-1.793,6.49,0
			c1.793,1.791,1.793,4.699,0,6.49l-40.389,40.389C133.755,474.535,132.581,474.982,131.406,474.982z M209.013,459.037
			l-31.542,47.619c-2.062,3.111-5.465,4.799-8.938,4.799c-2.032,0-4.085-0.576-5.906-1.785c-4.929-3.264-6.282-9.91-3.014-14.844
			l31.542-47.619c3.268-4.934,9.914-6.283,14.844-3.014C210.929,447.461,212.278,454.104,209.013,459.037z M232.787,136.458
			c-0.576,0.239-1.172,0.352-1.753,0.352c-1.803,0-3.51-1.068-4.245-2.833l-21.86-52.773c-0.97-2.344,0.141-5.027,2.485-5.998
			c2.35-0.967,5.034,0.144,5.998,2.485l21.86,52.772C236.241,132.804,235.13,135.488,232.787,136.458z M252.263,61.5
			c2.466-0.508,4.908,1.095,5.413,3.583l11.374,55.977c0.505,2.485-1.099,4.908-3.583,5.413c-0.309,0.064-0.615,0.095-0.921,0.095
			c-2.136,0-4.048-1.503-4.492-3.678L248.68,66.913C248.178,64.428,249.782,62.005,252.263,61.5z M335.789,301.021
			c0,19.354-15.689,35.043-35.043,35.043c-0.104,0-0.202-0.016-0.306-0.016l-13.051,35.902c-2.895,7.961-11.692,12.066-19.651,9.176
			c-7.959-2.896-12.065-11.693-9.174-19.652c0.229-0.633,0.542-1.322,0.841-1.902l17.384-33.021
			c-6.808-6.393-11.086-15.449-11.086-25.526c0-19.354,15.689-35.043,35.043-35.043c2.573,0,5.076,0.296,7.494,0.823l56.148-106.662
			l-41.375,113.82C330.812,280.388,335.789,290.125,335.789,301.021z M370.768,136.81c-0.582,0-1.182-0.113-1.754-0.352
			c-2.344-0.97-3.453-3.653-2.484-5.998l21.861-52.773c0.971-2.344,3.656-3.455,5.998-2.484c2.344,0.97,3.455,3.653,2.484,5.998
			l-21.861,52.772C374.277,135.742,372.57,136.81,370.768,136.81z M392.787,142.764l31.543-47.623
			c3.268-4.93,9.918-6.279,14.844-3.014c4.93,3.265,6.283,9.911,3.014,14.844l-31.541,47.623c-2.062,3.112-5.467,4.798-8.939,4.798
			c-2.031,0-4.084-0.575-5.906-1.784C390.871,154.34,389.523,147.697,392.787,142.764z M440.867,508.539
			c-1.836,1.236-3.918,1.828-5.977,1.828c-3.443,0-6.82-1.658-8.891-4.725l-31.928-47.361c-3.305-4.906-2.01-11.561,2.895-14.869
			c4.906-3.301,11.561-2.008,14.867,2.895l31.928,47.363C447.068,498.578,445.775,505.234,440.867,508.539z M473.639,473.639
			c-0.896,0.896-2.072,1.344-3.246,1.344c-1.176,0-2.35-0.447-3.246-1.344l-40.391-40.389c-1.793-1.791-1.793-4.699,0-6.49
			c1.793-1.793,4.697-1.793,6.49,0l40.391,40.389C475.432,468.939,475.432,471.846,473.639,473.639z M509.674,439.172
			c-2.062,3.111-5.465,4.797-8.939,4.797c-2.031,0-4.084-0.574-5.904-1.783l-47.621-31.539c-4.93-3.266-6.281-9.912-3.014-14.846
			c3.271-4.928,9.914-6.277,14.844-3.014l47.621,31.539C511.59,427.596,512.939,434.242,509.674,439.172z M526.596,394.385
			c-0.732,1.77-2.441,2.834-4.244,2.834c-0.584,0-1.182-0.113-1.754-0.352l-52.773-21.861c-2.344-0.971-3.453-3.654-2.484-5.998
			c0.967-2.344,3.654-3.455,5.998-2.484l52.773,21.861C526.455,389.357,527.564,392.045,526.596,394.385z M540.688,347.582
			c-0.43,2.191-2.352,3.715-4.502,3.715c-0.293,0-0.584-0.027-0.885-0.086l-56.064-10.914c-2.484-0.484-4.113-2.895-3.629-5.383
			c0.486-2.488,2.895-4.109,5.385-3.629l56.064,10.914C539.545,342.684,541.174,345.094,540.688,347.582z M555.9,300.898
			c0,8.449-6.848,15.301-15.299,15.301h-87.721c-8.453,0-15.301-6.852-15.301-15.301c0-8.448,6.848-15.299,15.301-15.299h87.721
			C549.053,285.599,555.9,292.45,555.9,300.898z M540.299,252.266c0.504,2.485-1.1,4.908-3.584,5.414l-55.977,11.371
			c-0.309,0.062-0.615,0.092-0.922,0.092c-2.135,0-4.047-1.502-4.492-3.678c-0.504-2.485,1.1-4.909,3.584-5.414l55.977-11.371
			C537.348,248.193,539.793,249.779,540.299,252.266z M526.596,207.413c0.969,2.344-0.141,5.028-2.484,5.998l-52.773,21.86
			c-0.576,0.239-1.172,0.352-1.754,0.352c-1.803,0-3.51-1.068-4.244-2.833c-0.969-2.344,0.141-5.028,2.484-5.998l52.773-21.861
			C522.945,203.964,525.629,205.075,526.596,207.413z"/>
	</g>
</g>
</svg>