<?xml version="1.0" encoding="iso-8859-1"?>
<!-- Uploaded to: SVG Repo, www.svgrepo.com, Generator: SVG Repo Mixer Tools -->
<!DOCTYPE svg PUBLIC "-//W3C//DTD SVG 1.1//EN" "http://www.w3.org/Graphics/SVG/1.1/DTD/svg11.dtd">
<svg fill="#000000" version="1.1" id="Capa_1" xmlns="http://www.w3.org/2000/svg" xmlns:xlink="http://www.w3.org/1999/xlink" 
	 width="800px" height="800px" viewBox="0 0 585.918 585.918"
	 xml:space="preserve">
<g>
	<path d="M77.256,251.521c-5.99,0.107-9.376,0.697-11.145,1.081v32.778l9.677,0.044c12.428,0.037,19.872-6.758,19.872-17.357
		C95.66,256.933,88.705,251.499,77.256,251.521z"/>
	<path d="M537.115,48.974h-177.39c-0.787,0-1.553,0.076-2.329,0.123V0L11.176,46.207v492.31l346.22,47.401v-50.583
		c0.776,0.053,1.542,0.115,2.329,0.115h177.39c20.745,0,37.627-16.888,37.627-37.628V86.602
		C574.742,65.859,557.86,48.974,537.115,48.974z M99.962,352.588c-1.834-3.503-4.488-13.486-7.811-28.463
		c-2.963-15.113-7.735-19.287-17.824-19.627l-7.407-0.111v46.715l-23.835-1.077V234.577c7.66-1.619,19.206-3.026,32.213-3.419
		c16.362-0.5,28.019,1.845,36.108,8.499c6.812,5.653,10.572,14.152,10.572,25.446c0,15.696-10.401,26.377-20.157,30.093v0.546
		c7.902,3.517,12.304,11.732,15.208,23.065c3.585,13.943,7.187,30.127,9.433,34.983L99.962,352.588z M170.556,357.652
		c-13.89-0.64-27.389-4.966-34.052-9.118l5.433-23.029c7.242,4.084,18.489,8.347,30.266,8.725
		c12.856,0.421,19.727-4.882,19.727-13.249c0-7.98-5.94-12.652-20.83-18.353c-20.153-7.518-33.021-19.05-33.021-37.101
		c0-21.183,16.971-37.935,45.87-38.837c14.157-0.44,24.748,2.312,32.407,5.554l-6.504,23.83c-5.134-2.431-14.182-5.919-26.462-5.699
		c-12.108,0.21-17.911,5.918-17.911,12.476c0,8.052,6.89,11.59,22.908,17.792c22.404,8.483,33.155,20.551,33.155,38.93
		C221.546,341.441,204.916,359.243,170.556,357.652z M274.914,362.492c-15.68-0.725-30.861-5.344-38.371-9.77l6.108-24.43
		c8.15,4.361,20.835,8.897,34.1,9.328c14.526,0.473,22.287-5.145,22.287-14.033c0-8.497-6.73-13.463-23.518-19.542
		c-22.711-7.985-37.208-20.231-37.208-39.384c0-22.468,19.121-40.266,51.701-41.287c16.01-0.507,27.984,2.402,36.631,5.832
		l-7.359,25.355c-5.796-2.575-16.018-6.263-29.902-6.016c-13.664,0.226-20.216,6.296-20.216,13.263
		c0,8.552,7.783,12.315,25.867,18.911c20.501,7.3,32.377,17.11,36.155,30.949v4.641c0.336,0.141,0.651,0.314,0.977,0.462
		c0.221,1.732,0.368,3.512,0.368,5.365C332.535,345.384,313.7,364.287,274.914,362.492z M553.24,497.822
		c0,8.893-7.232,16.127-16.125,16.127h-177.39c-0.797,0-1.563-0.116-2.329-0.232V388.897c0.397-2.137,0.639-4.337,0.639-6.594
		c0-2.262-0.241-4.461-0.639-6.604v-43.465c23.774,19.602,38.961,49.271,38.961,82.426c0,2.047,1.679,3.748,3.758,3.748h46.038
		c2.089,0,3.773-1.701,3.773-3.748l-0.194-1.187c-0.473-63.56-38.204-118.375-92.336-143.818v-27.05
		c68.535,27.126,117.165,93.984,117.165,172.055c0,2.047,1.681,3.748,3.75,3.748h47.381c2.067,0,3.794-1.701,3.794-3.748
		l-0.214-1.187c-0.511-108.127-73.015-199.433-171.876-228.669V70.72c0.766-0.116,1.532-0.244,2.329-0.244h177.39
		c8.893,0,16.125,7.236,16.125,16.126V497.822z"/>
</g>
</svg>