<?xml version="1.0" ?><!DOCTYPE svg  PUBLIC '-//W3C//DTD SVG 1.1//EN'  'http://www.w3.org/Graphics/SVG/1.1/DTD/svg11.dtd'><!-- Uploaded to: SVG Repo, www.svgrepo.com, Generator: SVG Repo Mixer Tools -->
<svg fill="#000000" width="800px" height="800px" viewBox="0 0 512 512" enable-background="new 0 0 512 512" id="information_x5F_counter" version="1.1" xml:space="preserve" xmlns="http://www.w3.org/2000/svg" xmlns:xlink="http://www.w3.org/1999/xlink"><path d="M446.058,279.423H294.744h-70.046H65.942c-2.072,0-3.752,1.68-3.752,3.752v23.079c0,2.072,1.68,3.751,3.752,3.751h15.416  v151.657h349.282V310.005h15.417c2.072,0,3.752-1.679,3.752-3.751v-23.079C449.81,281.103,448.13,279.423,446.058,279.423z"/><path d="M296.951,178.123c0-20.562-16.668-37.23-37.23-37.23c-20.562,0-37.23,16.668-37.23,37.23  c0,16.165,10.321,29.884,24.719,35.029v10.542h-10.451c-6.66,0-12.06,5.399-12.06,12.061v32.101h70.046v-32.101  c0-6.661-5.398-12.061-12.06-12.061h-10.451v-10.542C286.631,208.007,296.951,194.288,296.951,178.123z M243.407,187.149  c0-0.989,0.803-1.791,1.792-1.791h29.654c0.989,0,1.791,0.802,1.791,1.791c0,9.178-7.44,16.619-16.618,16.619  C250.848,203.768,243.407,196.327,243.407,187.149z"/><path d="M385.665,211.086h-50.793c-3.247,0-5.88,2.632-5.88,5.88v50.889h62.553v-50.889  C391.545,213.718,388.913,211.086,385.665,211.086z M376.507,249.827h-32.476v-7.524h32.476V249.827z M376.507,230.988h-32.476  v-7.524h32.476V230.988z"/><path d="M208.112,164.956l-11.999-22.712c12.211-27.799,3.764-61.279-21.911-79.651c-30.728-21.989-73.981-13.648-94.116,19.111  c-17.226,28.025-10.65,65.107,15.121,85.55c25.914,20.555,61.97,18.291,85.125-2.956l25.369,4.028  C207.586,168.625,209.004,166.643,208.112,164.956z M144.973,154.851h-17.547v-46.95h17.547V154.851z M144.973,94.545h-17.547  V76.999h17.547V94.545z"/><path d="M145.752,247.406v20.45l0,0h0.112h9.64h1.815l0,0v-20.45c0-2.227,1.098-4.31,3.001-5.618l9.075-6.416  c1.921,0.997,4.104,1.588,6.443,1.588c7.485,0,13.554-5.792,13.554-12.937s-6.068-12.938-13.554-12.938  c-7.484,0-13.552,5.792-13.552,12.938c0,0.707,0.085,1.393,0.203,2.067l-8.777,6.207  C148.727,235.714,145.752,241.362,145.752,247.406z"/></svg>