<?xml version="1.0" encoding="utf-8"?>
<!-- Uploaded to: SVG Repo, www.svgrepo.com, Generator: SVG Repo Mixer Tools -->
<svg fill="#000000" version="1.1" id="Layer_1" xmlns="http://www.w3.org/2000/svg" xmlns:xlink="http://www.w3.org/1999/xlink" 
	 width="800px" height="800px" viewBox="0 0 236 256" enable-background="new 0 0 236 256" xml:space="preserve">
<path d="M117.5,2c-12.47,0-22.63,10.16-22.63,22.63c0,12.46,10.06,22.62,22.63,22.62c12.37,0,22.62-10.16,22.62-22.62
	C140.12,12.16,129.97,2,117.5,2z M146,52H89c-15.59,0-28,13.41-28,29v32h20V86c0-1.71,1.29-3,3-3s3,1.29,3,3v27h61V86
	c0-1.71,1.29-3,3-3s3,1.29,3,3v27h20V81C174,65.51,161.49,52,146,52z M2,118v27h23v109h185V145h24v-27H2z M136.06,206.81
	c1.03-0.34,2.02-0.58,3.05-0.58c3.05-0.11,5.66,0.82,7.88,2.84c2.23,1.99,3.43,4.45,3.5,7.57c0.1,0.93,0,2.02-0.24,3.05l-8.74-8.05
	l-7.88,8.6l8.84,8.02c-1.03,0.34-2.02,0.58-3.05,0.58c-3.05,0.11-5.65-0.82-7.88-2.84c-2.23-2.13-3.43-4.59-3.53-7.64
	c0-1.07,0.1-2.27,0.34-3.29l-2.12-2.03l-12.72-11.61l-21.52,23.71c-1.3,1.75-3.32,2.95-5.65,2.95c-3.77,0-6.82-3.05-6.82-6.82
	c0-2.02,0.79-3.87,2.33-5.18l22.34-23.16l-13.5-12.37c-1.06,0.48-2.26,0.72-3.29,0.72c-3.05,0.1-5.65-0.82-7.88-2.85
	c-2.23-2.02-3.43-4.49-3.53-7.54c-0.1-0.92,0-2.02,0.24-3.05l8.84,8.02l7.81-8.56l-8.84-8.02c0.93-0.35,2.02-0.59,3.05-0.59
	c3.05-0.1,5.66,0.83,7.88,2.85c2.23,1.99,3.43,4.59,3.53,7.64c0.11,1.03,0,2.02-0.24,3.05l13.92,12.75l10.17-11l-15.21-13.4
	l13.81-15.73l39.1,34.41l-13.81,15.73l-15.63-13.78l-9.83,11.62L136.06,206.81z"/>
</svg>