<?xml version="1.0" encoding="iso-8859-1"?>
<!-- Uploaded to: SVG Repo, www.svgrepo.com, Generator: SVG Repo Mixer Tools -->
<svg fill="#000000" height="800px" width="800px" version="1.1" id="Layer_1" xmlns="http://www.w3.org/2000/svg" xmlns:xlink="http://www.w3.org/1999/xlink" 
	 viewBox="0 0 512 512" xml:space="preserve">
<g>
	<g>
		<path d="M84.54,0v512h259.252c46.209,0,83.669-37.459,83.669-83.669V0H84.54z M138.121,53.582H373.88v189.321H138.121V53.582z
			 M215.931,382.887h-25.6v25.6H156.94v-25.6h-25.6v-33.391h25.6v-25.6h33.391v25.6h25.6V382.887z M284.507,445.972
			c-17.976,0-32.6-14.624-32.6-32.6s14.624-32.6,32.6-32.6s32.6,14.624,32.6,32.6S302.482,445.972,284.507,445.972z M342.138,377.21
			c-17.976,0-32.6-14.624-32.6-32.6s14.624-32.6,32.6-32.6s32.6,14.624,32.6,32.6S360.114,377.21,342.138,377.21z"/>
	</g>
</g>
</svg>