<?xml version="1.0" encoding="iso-8859-1"?>
<!-- Uploaded to: SVG Repo, www.svgrepo.com, Generator: SVG Repo Mixer Tools -->
<!DOCTYPE svg PUBLIC "-//W3C//DTD SVG 1.1//EN" "http://www.w3.org/Graphics/SVG/1.1/DTD/svg11.dtd">
<svg fill="#000000" version="1.1" id="Capa_1" xmlns="http://www.w3.org/2000/svg" xmlns:xlink="http://www.w3.org/1999/xlink" 
	 width="800px" height="800px" viewBox="0 0 556.328 556.328"
	 xml:space="preserve">
<g>
	<path d="M287.665,268.726l-11.092-9.735l-9.075,9.764c3.117-1.023,6.56-1.626,10.146-1.626
		C281.181,267.128,284.557,267.722,287.665,268.726z"/>
	<path d="M252.379,280.832l-8.482,9.695l10.031,9.344v-0.363c-2.171-3.146-3.509-6.723-3.509-10.576
		C250.419,286.053,251.126,283.337,252.379,280.832z"/>
	<path d="M304.581,288.396c0,3.347-1.004,6.483-2.668,9.313l9.094-10.375l-9.447-8.797
		C303.423,281.511,304.581,284.828,304.581,288.396z"/>
	<path d="M268.855,309.289l10.892,9.562l8.932-9.59c-3.079,0.994-6.445,1.576-9.974,1.576
		C275.224,310.838,271.896,310.256,268.855,309.289z"/>
	<path d="M270.423,463.312c-3.079,0.861-4.857,3.031-4.857,5.709c-0.096,2.83,2.018,5.355,5.508,5.355
		c3.29,0,5.451-2.066,5.451-4.896C276.534,466.143,274.105,464.326,270.423,463.312z"/>
	<polygon points="337.542,504.488 342.381,504.488 343.242,498.072 338.384,498.072 	"/>
	<path d="M271.638,458.723c2.256-0.65,4.092-2.467,4.092-4.943c0-2.275-1.367-4.648-4.705-4.648c-3.117,0-4.743,2.066-4.743,4.447
		C266.273,456.246,268.501,457.861,271.638,458.723z"/>
	<path d="M196.668,394.043c0-1.875,0.096-3.74,0.191-5.709h-0.191c-1.023,2.064-1.865,3.738-2.897,5.555l-6.053,8.988v0.096h8.951
		V394.043L196.668,394.043z"/>
	<path d="M271.055,500.482c-3.271,0-5.604,4.092-5.604,12.27c0,8.021,2.189,12.162,5.565,12.162c3.682,0,5.546-4.445,5.546-12.326
		C276.562,504.977,274.793,500.482,271.055,500.482z"/>
	<path d="M340.326,438.135c-3.137,0-5.365,2.783-5.365,6.77c0,3.387,1.979,6.006,5.403,6.006c2.543,0,4.351-1.205,5.307-2.725
		c0.201-0.459,0.354-0.967,0.354-1.818C346.025,441.922,344.361,438.135,340.326,438.135z"/>
	<path d="M373.498,0H182.812c-22.931,0-41.578,18.657-41.578,41.587V514.74c0,22.93,18.638,41.588,41.578,41.588h190.686
		c22.931,0,41.597-18.658,41.597-41.588V41.587C415.094,18.657,396.438,0,373.498,0z M240.464,30.677
		c0.688-0.813,1.683-1.281,2.744-1.281h70.447c1.08,0,2.113,0.497,2.802,1.348c0.669,0.851,0.937,1.97,0.688,3.031l-3.939,17.203
		c-0.373,1.635-1.827,2.792-3.491,2.792h-63.447c-1.74,0-3.232-1.243-3.528-2.964l-3.06-17.203
		C239.489,32.561,239.795,31.49,240.464,30.677z M207.426,505.848l-12.977-1.99v0.24l8.521,10.107l-6.388,3.643l-4.877-12.26
		l-0.172,0.086l-4.972,12.26l-6.053-3.729l8.367-10.193v-0.24l-12.68,2.066v-7.125l12.603,2.152v-0.162l-8.291-10.357l6.292-3.652
		l4.896,12.182h0.172l4.896-12.258l6.196,3.633l-8.443,10.443v0.162l12.909-2.152V505.848L207.426,505.848z M193.197,338.531
		l-5.996,3.031l-1.062-4.695l8.032-3.939h5.135v32.818h-5.996v-27.215H193.197z M195.195,383.189h7.325v19.783h4.236v4.695h-4.236
		v8.33h-5.842v-8.33H181.77v-4.035L195.195,383.189z M183.481,439.244v-5.154h22.061v3.988l-13.895,28.83h-6.502l13.818-27.568
		v-0.096H183.481z M210.677,273.497c0,0.957-0.583,1.827-1.453,2.2l-5.719,2.428v17.806l5.47,1.646
		c1.004,0.305,1.702,1.232,1.702,2.285v11.627c0,1.32-1.081,2.391-2.391,2.391c-11.58,0-16.007-10.385-16.715-15.863l-0.02-19.852
		c0-12.881,15.559-16.477,16.208-16.629c0.708-0.163,1.454,0.019,2.018,0.468c0.564,0.45,0.898,1.138,0.898,1.865V273.497z
		 M270.815,529.668c-7.525,0-11.561-6.867-11.618-16.859c0-10.252,4.351-17.068,12.029-17.068c7.917,0,11.599,7.066,11.599,16.715
		C282.826,523.051,278.695,529.668,270.815,529.668z M270.873,478.766c-7.679,0-11.657-4.447-11.657-9.037
		c0-4.045,2.372-6.816,6.148-8.48v-0.154c-3.414-1.664-4.982-4.398-4.982-7.268c0-5.354,4.743-8.988,10.949-8.988
		c7.133,0,10.308,4.236,10.308,8.281c0,2.783-1.473,5.652-5.039,7.42v0.154c3.566,1.367,6.254,4.197,6.254,8.281
		C282.845,474.826,277.892,478.766,270.873,478.766z M269.697,348.717c-2.936,0-5.355,1.463-7.019,2.725l-1.807-4.389
		c2.372-1.922,5.958-3.387,10.107-3.387c7.268,0,10.796,4.592,10.796,9.945c0,5.758-4.15,10.395-9.897,15.703l-2.821,2.477v0.096
		h13.426v5.152h-22.223v-3.785l3.901-3.586c7.717-7.172,11.36-11.104,11.408-15.443C275.559,351.297,273.99,348.717,269.697,348.717
		z M260.899,421.258c1.415,0.754,4.236,1.711,7.21,1.711c3.643,0,7.134-2.066,7.134-5.957c0-3.787-2.783-6.264-9.305-6.264
		c-1.865,0-3.232,0.152-4.485,0.307l2.114-16.553h17.011v5.154h-12.622L267,406.215c0.708-0.096,1.368-0.152,2.314-0.152
		c2.878,0,5.804,0.66,7.975,2.123c2.486,1.568,4.293,4.342,4.293,8.328c0,6.264-5.192,11.361-13.225,11.361
		c-3.844,0-7.019-0.967-8.74-1.922L260.899,421.258z M319.9,326.436c-0.115,1.883-1.683,3.346-3.566,3.346h-77.954
		c-1.903,0-3.471-1.473-3.586-3.355l-4.647-74.559c-0.057-0.994,0.297-1.96,0.976-2.677c0.669-0.717,1.625-1.128,2.61-1.128h87.459
		c0.994,0,1.941,0.411,2.61,1.138c0.67,0.727,1.033,1.693,0.956,2.687L319.9,326.436z M351.782,498.072h-4.705l-0.86,6.416h4.255
		v3.883h-4.857l-1.311,9.439h-3.844l1.329-9.439h-4.915l-1.253,9.439h-3.883l1.311-9.439h-4.15v-3.883h4.801l0.86-6.416h-4.293
		v-3.883h4.896l1.271-9.189h3.787l-1.271,9.189h4.896l1.329-9.189h3.777l-1.253,9.189h4.093v3.883H351.782z M346.646,462.816
		c-2.84,2.619-6.779,4.188-11.227,4.494c-1.405,0.152-2.764,0.152-3.738,0.105v-4.955c1.022,0.105,1.979,0.049,3.433-0.094
		c2.486-0.201,4.857-1.062,6.665-2.525c2.171-1.711,3.644-4.188,4.236-7.324h-0.096c-1.664,1.816-4.055,2.877-7.172,2.877
		c-5.719,0-9.954-4.092-9.954-10.154c0-6.312,4.857-11.715,11.818-11.715c7.679,0,11.715,5.957,11.715,13.98
		C352.335,454.545,350.06,459.535,346.646,462.816z M341.042,416.562c-7.975,0-12.364-6.062-12.364-14.182
		c0-6.311,2.257-11.408,5.699-14.641c2.983-2.879,6.971-4.494,11.676-4.848c1.367-0.201,2.372-0.201,3.117-0.152v4.895
		c-0.898-0.047-1.902,0-3.117,0.154c-6.933,0.803-10.193,4.99-11.016,9.533h0.152c1.626-1.865,4.093-3.184,7.373-3.184
		c5.661,0,10.05,4.035,10.05,10.699C352.604,411.111,348.004,416.562,341.042,416.562z M337.676,350.543h-2.82V346h2.82
		c2.84,0,6.465-1.311,6.465-4.543c0-2.266-1.606-4.139-5.25-4.139c-2.668,0-5.346,1.156-6.703,2.064l-1.416-4.494
		c1.865-1.262,5.547-2.525,9.429-2.525c6.818,0,10.251,3.74,10.251,8.023c0,3.434-2.018,6.264-6.053,7.68v0.096
		c3.979,0.754,7.172,3.738,7.21,8.176c0,5.555-4.628,9.945-12.775,9.945c-3.978,0-7.411-1.109-9.189-2.277l1.415-4.695
		c1.272,0.756,4.352,2.018,7.469,2.018c4.743,0,6.607-2.678,6.607-5.25C345.145,352.207,341.473,350.543,337.676,350.543z
		 M365.523,297.709c-0.746,5.795-5.174,16.18-16.734,16.18c-1.329,0-2.391-1.07-2.391-2.391v-11.627c0-1.053,0.688-1.99,1.702-2.285
		l5.47-1.646v-17.806l-5.719-2.429c-0.898-0.373-1.453-1.243-1.453-2.199v-9.62c0-0.727,0.315-1.406,0.898-1.865
		c0.564-0.45,1.291-0.622,1.999-0.469c0.669,0.153,16.228,3.749,16.228,16.63V297.709z M377.083,207.908
		c0,1.979-1.606,3.586-3.586,3.586h-192.13c-1.979,0-3.586-1.606-3.586-3.586V76.003c0-1.979,1.607-3.586,3.586-3.586h192.13
		c1.979,0,3.586,1.606,3.586,3.586V207.908z"/>
	<path d="M340.593,398.689c-2.333,0-4.39,1.416-5.364,3.385c-0.239,0.508-0.393,1.109-0.393,1.971
		c0.096,4.342,2.113,7.879,6.196,7.879c3.175,0,5.25-2.773,5.25-6.713C346.283,401.367,344.217,398.689,340.593,398.689z"/>
</g>
</svg>