<?xml version="1.0" encoding="utf-8"?>

<!DOCTYPE svg PUBLIC "-//W3C//DTD SVG 1.1//EN" "http://www.w3.org/Graphics/SVG/1.1/DTD/svg11.dtd">
<!-- Uploaded to: SVG Repo, www.svgrepo.com, Generator: SVG Repo Mixer Tools -->
<svg version="1.1" id="_x32_" xmlns="http://www.w3.org/2000/svg" xmlns:xlink="http://www.w3.org/1999/xlink" 
	 width="800px" height="800px" viewBox="0 0 512 512"  xml:space="preserve">
<style type="text/css">
<![CDATA[
	.st0{fill:#000000;}
]]>
</style>
<g>
	<path class="st0" d="M477.984,39.203H34.016C15.219,39.203,0,54.438,0,73.219v283.969c0,18.781,15.219,34.016,34.016,34.016H220
		v7.578c0,18.781-15.219,34.016-34.016,34.016H136v40h73.188h93.625H376v-40h-49.984c-18.797,0-34.016-15.234-34.016-34.016v-7.578
		h185.984c18.797,0,34.016-15.234,34.016-34.016V73.219C512,54.438,496.781,39.203,477.984,39.203z M464,315.859
		c0,6.266-5.078,11.344-11.344,11.344H59.344c-6.266,0-11.344-5.078-11.344-11.344V98.547c0-6.266,5.078-11.344,11.344-11.344
		h393.313c6.266,0,11.344,5.078,11.344,11.344V315.859z"/>
</g>
</svg>