<?xml version="1.0" encoding="utf-8"?>

<!-- Uploaded to: SVG Repo, www.svgrepo.com, Generator: SVG Repo Mixer Tools -->
<svg version="1.1" id="Icons" xmlns="http://www.w3.org/2000/svg" xmlns:xlink="http://www.w3.org/1999/xlink" 
	 viewBox="0 0 32 32" xml:space="preserve">
<style type="text/css">
	.st0{fill:none;stroke:#000000;stroke-width:2;stroke-linecap:round;stroke-linejoin:round;stroke-miterlimit:10;}
</style>
<g>
	<path d="M26,6c-0.7,0-1.4,0.2-2,0.6V5c0-1.7-1.3-3-3-3h-0.9c-1.5,0-2.8,1.1-3.1,2.5c-0.1,0.9,0.1,1.8,0.7,2.4
		c0.3,0.4,0.8,0.7,1.3,0.9V11c0,0.6,0.4,1,1,1h2v7c0,0.6-0.4,1-1,1h-1v-5c0-1.7-1.3-3-3-3H5c-1.7,0-3,1.3-3,3v12c0,1.7,1.3,3,3,3h12
		c1.7,0,3-1.3,3-3v-5h1c1.7,0,3-1.3,3-3v-8v-1c0-1.1,0.9-2,2-2s2,0.9,2,2v9h-2c-0.6,0-1,0.4-1,1v3.2c-0.5,0.2-0.9,0.5-1.3,0.9
		c-0.6,0.7-0.8,1.6-0.7,2.4c0.2,1.4,1.6,2.5,3.1,2.5H27c1.7,0,3-1.3,3-3v-5v-1V10C30,7.8,28.2,6,26,6z M11,27c-3.3,0-6-2.7-6-6
		s2.7-6,6-6s6,2.7,6,6S14.3,27,11,27z"/>
	<circle cx="11" cy="21" r="2"/>
</g>
</svg>