<?xml version="1.0" encoding="iso-8859-1"?>
<!-- Uploaded to: SVG Repo, www.svgrepo.com, Generator: SVG Repo Mixer Tools -->
<!DOCTYPE svg PUBLIC "-//W3C//DTD SVG 1.1//EN" "http://www.w3.org/Graphics/SVG/1.1/DTD/svg11.dtd">
<svg fill="#000000" version="1.1" id="Capa_1" xmlns="http://www.w3.org/2000/svg" xmlns:xlink="http://www.w3.org/1999/xlink" 
	 width="800px" height="800px" viewBox="0 0 71.682 71.682"
	 xml:space="preserve">
<g>
	<g>
		<path d="M48.161,33.825l0.672,0.447c-1.121,0.673-2.912,1.12-5.377,1.567V34.72c2.017-2.017,3.137-4.704,3.137-7.616h1.347v-5.376
			h-4.033v5.376h1.344c0,2.465-0.896,4.479-2.24,6.271l-3.584-4.032h-7.617l-3.359,3.81c-1.344-1.568-2.24-3.81-2.24-6.272h1.344
			v-5.376h-4.031v5.601h1.344c0,2.912,1.12,5.601,3.136,7.616v1.119c-2.24-0.447-4.032-0.896-5.376-1.567l0.672-0.447l-2.688-4.704
			l-3.584,2.016l2.688,4.704l1.344-0.896c1.568,1.119,4.032,1.792,6.944,2.24v2.463c-1.344,1.346-2.464,3.139-2.912,5.151h-1.567
			v5.375h4.031v-5.149h-0.896c0.448-1.344,1.12-2.688,2.016-3.81l3.136,3.81h7.617l3.137-3.81c0.896,1.119,1.566,2.466,2.017,3.81
			H43.68v5.377h4.031v-5.377h-1.568c-0.447-2.019-1.565-3.81-2.91-5.15v-2.465c2.91-0.447,5.375-1.346,6.943-2.241l1.344,0.896
			l2.688-4.702l-3.584-2.018L48.161,33.825z"/>
		<path d="M64.96,0H6.72C2.912,0,0,2.912,0,6.721v58.241c0,3.808,2.912,6.72,6.72,6.72h58.24c3.812,0,6.722-2.912,6.722-6.72V6.721
			C71.68,3.136,68.544,0,64.96,0z M25.088,4.929c1.344,0,2.688,1.119,2.688,2.688c0,1.568-1.12,2.688-2.688,2.688
			c-1.344,0-2.688-1.12-2.688-2.688C22.401,6.049,23.521,4.929,25.088,4.929z M17.472,4.929c1.345,0,2.688,1.119,2.688,2.688
			c0,1.568-1.12,2.688-2.688,2.688c-1.567,0-2.688-1.12-2.688-2.688C14.784,6.049,16.128,4.929,17.472,4.929z M10.08,4.929
			c1.344,0,2.688,1.119,2.688,2.688c0,1.568-1.12,2.688-2.688,2.688s-2.688-1.12-2.688-2.688C7.392,6.049,8.512,4.929,10.08,4.929z
			 M63.841,59.361c0,2.464-2.018,4.479-4.479,4.479H12.321c-2.464,0-4.48-2.016-4.48-4.479v-40.32c0-2.464,2.017-4.479,4.48-4.479
			h19.04c4.256,0,4.479,0,4.479-2.239c0-2.912,2.016-4.48,4.48-4.48h19.039c2.466,0,4.48,2.017,4.48,4.48L63.841,59.361
			L63.841,59.361z"/>
	</g>
</g>
</svg>