<?xml version="1.0" encoding="iso-8859-1"?>
<!-- Uploaded to: SVG Repo, www.svgrepo.com, Generator: SVG Repo Mixer Tools -->
<!DOCTYPE svg PUBLIC "-//W3C//DTD SVG 1.1//EN" "http://www.w3.org/Graphics/SVG/1.1/DTD/svg11.dtd">
<svg fill="#000000" version="1.1" id="Capa_1" xmlns="http://www.w3.org/2000/svg" xmlns:xlink="http://www.w3.org/1999/xlink" 
	 width="800px" height="800px" viewBox="0 0 46.999 46.999"
	 xml:space="preserve">
<g>
	<path d="M34.325,16.917v-6.084C34.325,4.853,29.468,0,23.5,0c-5.967,0-10.824,4.853-10.824,10.833v6.084
		C8.911,20.033,6.51,24.741,6.51,30.009c0,9.384,7.605,16.99,16.989,16.99c9.385,0,16.989-7.606,16.989-16.99
		C40.489,24.741,38.089,20.033,34.325,16.917z M16.685,10.833c0-3.762,3.056-6.828,6.815-6.828c3.762,0,6.815,3.065,6.815,6.828
		v3.62c-2.088-0.916-4.391-1.432-6.815-1.432s-4.728,0.516-6.815,1.432V10.833z M15.859,38.723c-1.302,0-2.358-1.057-2.358-2.358
		s1.057-2.358,2.358-2.358c1.301,0,2.357,1.057,2.357,2.358S17.162,38.723,15.859,38.723z M15.861,32.505
		c-1.303,0-2.358-1.056-2.358-2.358c0-1.302,1.056-2.357,2.358-2.357c1.302,0,2.358,1.056,2.358,2.357
		C18.219,31.449,17.164,32.505,15.861,32.505z M15.863,26.288c-1.303,0-2.357-1.056-2.357-2.358c0-1.302,1.055-2.357,2.357-2.357
		c1.302,0,2.358,1.056,2.358,2.357C18.222,25.232,17.166,26.288,15.863,26.288z M23.5,38.723c-1.302,0-2.358-1.057-2.358-2.358
		s1.057-2.358,2.358-2.358c1.301,0,2.356,1.057,2.356,2.358S24.801,38.723,23.5,38.723z M23.501,32.505
		c-1.302,0-2.358-1.056-2.358-2.358c0-1.302,1.057-2.357,2.358-2.357s2.358,1.056,2.358,2.357
		C25.86,31.449,24.803,32.505,23.501,32.505z M23.503,26.288c-1.302,0-2.357-1.056-2.357-2.358c0-1.302,1.056-2.357,2.357-2.357
		c1.302,0,2.358,1.056,2.358,2.357C25.862,25.232,24.805,26.288,23.503,26.288z M31.139,38.723c-1.302,0-2.357-1.057-2.357-2.358
		s1.057-2.358,2.357-2.358c1.303,0,2.357,1.057,2.357,2.358S32.442,38.723,31.139,38.723z M31.141,32.505
		c-1.302,0-2.357-1.056-2.357-2.358c0-1.302,1.057-2.357,2.357-2.357c1.303,0,2.357,1.056,2.357,2.357
		C33.499,31.449,32.444,32.505,31.141,32.505z M31.143,26.288c-1.302,0-2.356-1.056-2.356-2.358c0-1.302,1.056-2.357,2.356-2.357
		s2.358,1.056,2.358,2.357C33.501,25.232,32.444,26.288,31.143,26.288z"/>
</g>
</svg>