<?xml version="1.0" encoding="iso-8859-1"?>
<!-- Uploaded to: SVG Repo, www.svgrepo.com, Generator: SVG Repo Mixer Tools -->
<!DOCTYPE svg PUBLIC "-//W3C//DTD SVG 1.1//EN" "http://www.w3.org/Graphics/SVG/1.1/DTD/svg11.dtd">
<svg fill="#000000" version="1.1" id="Capa_1" xmlns="http://www.w3.org/2000/svg" xmlns:xlink="http://www.w3.org/1999/xlink" 
	 width="800px" height="800px" viewBox="0 0 95.44 95.439"
	 xml:space="preserve">
<g>
	<g>
		<path d="M69.352,0H26.087c-4.212,0-7.635,3.423-7.635,7.636v80.168c0,4.212,3.423,7.636,7.635,7.636h43.265
			c4.214,0,7.636-3.424,7.636-7.636V7.636C76.988,3.423,73.566,0,69.352,0z M40.085,6.974c0-1.039,0.844-1.884,1.885-1.884h10.229
			c1.04,0,1.884,0.845,1.884,1.884v0.051c0,1.039-0.844,1.883-1.884,1.883H41.97c-1.041,0-1.885-0.844-1.885-1.883V6.974z
			 M47.72,92.574c-2.277,0-4.135-1.856-4.135-4.136c0-2.276,1.857-4.136,4.135-4.136s4.136,1.857,4.136,4.136
			C51.856,90.718,49.998,92.574,47.72,92.574z M70.625,80.169c0,0.698-0.571,1.272-1.272,1.272H26.087
			c-0.699,0-1.272-0.574-1.272-1.272V15.271c0-0.699,0.573-1.272,1.272-1.272h43.265c0.701,0,1.272,0.573,1.272,1.272V80.169z"/>
		<path d="M64.275,72.533h-33.11c-0.695,0-1.26,0.563-1.26,1.261v0.024c0,0.695,0.564,1.26,1.26,1.26h33.11
			c0.696,0,1.261-0.563,1.261-1.26v-0.024C65.535,73.098,64.971,72.533,64.275,72.533z"/>
		<path d="M64.275,64.898h-33.11c-0.695,0-1.26,0.563-1.26,1.262v0.022c0,0.697,0.564,1.261,1.26,1.261h33.11
			c0.696,0,1.261-0.562,1.261-1.261V66.16C65.535,65.462,64.971,64.898,64.275,64.898z"/>
		<path d="M64.275,57.263h-33.11c-0.695,0-1.26,0.563-1.26,1.261v0.024c0,0.696,0.564,1.261,1.26,1.261h33.11
			c0.696,0,1.261-0.564,1.261-1.261v-0.024C65.535,57.826,64.971,57.263,64.275,57.263z"/>
		<path d="M46.448,22.97c-6.012,0.597-10.791,5.376-11.388,11.389h11.388V22.97z"/>
		<path d="M47.72,48.357c7.029,0,12.726-5.698,12.726-12.727c0-6.599-5.021-12.022-11.452-12.661v11.389
			c0,1.401-1.142,2.545-2.546,2.545H35.06C35.697,43.333,41.121,48.357,47.72,48.357z"/>
	</g>
</g>
</svg>