<?xml version="1.0" encoding="iso-8859-1"?>
<!-- Uploaded to: SVG Repo, www.svgrepo.com, Generator: SVG Repo Mixer Tools -->
<!DOCTYPE svg PUBLIC "-//W3C//DTD SVG 1.1//EN" "http://www.w3.org/Graphics/SVG/1.1/DTD/svg11.dtd">
<svg fill="#000000" height="800px" width="800px" version="1.1" id="Capa_1" xmlns="http://www.w3.org/2000/svg" xmlns:xlink="http://www.w3.org/1999/xlink" 
	 viewBox="0 0 495.787 495.787" xml:space="preserve">
<g>
	<path d="M326.629,212.262c23.443,0,42.531-19.066,42.531-42.528c0-23.452-19.088-42.519-42.531-42.519
		c-23.459,0-42.512,19.066-42.512,42.519C284.117,193.196,303.17,212.262,326.629,212.262z"/>
	<path d="M92.789,335.697c-3.391,0.985-6.926,1.478-10.494,1.478c-3.307,0-6.617-0.429-9.943-1.324
		c-7.379-2.012-13.818-6.16-18.764-11.891H41.076c-4.281,0-7.75-3.488-7.75-7.767v-26.043c-6.363-11.682-5.924-25.301,0-36.274
		v-18.42c-5.895-10.94-6.328-24.512,0-36.234V74.507c0-4.278,3.469-7.767,7.75-7.767h183.348c3.686-2.439,7.688-4.455,12.115-5.643
		c3.469-0.921,7.068-1.404,10.688-1.404c6.406,0,12.721,1.494,18.355,4.31c0.791-12.586,7.363-23.531,16.922-30.578H41.076
		C18.439,33.425,0,51.846,0,74.507v241.686c0,22.659,18.439,41.082,41.076,41.082h66.488
		C100.361,352.101,94.984,344.546,92.789,335.697z"/>
	<path d="M454.715,33.425h-83.957c9.572,7.047,16.131,18.01,16.9,30.595c5.685-2.832,11.984-4.326,18.377-4.326
		c8.17,0,15.936,2.664,22.588,7.047h26.092c4.277,0,7.752,3.488,7.752,7.767v41.994c4.715,9.213,5.953,19.61,3.275,29.458
		c-0.777,2.914-1.922,5.652-3.275,8.275v31.154c5.824,11.477,6.248,25.365,0,37.545v93.26c0,4.278-3.475,7.767-7.752,7.767H237.084
		c-4.908,5.682-11.479,9.912-18.807,11.898c-3.232,0.881-6.559,1.316-9.883,1.316c-3.586,0-7.104-0.5-10.494-1.471
		c-0.439,1.688-1.037,3.311-1.664,4.908c-3.615,9.001-10.594,16.234-19.377,20.295v22.008
		c-26.137,2.832-46.613,24.768-46.613,51.635v15.306c0,6.902,5.607,12.506,12.482,12.506H353.08c6.875,0,12.475-5.603,12.475-12.506
		V434.55c0-26.867-20.471-48.803-46.607-51.635v-25.64h135.768c22.637,0,41.072-18.423,41.072-41.082V74.507
		C495.787,51.846,477.352,33.425,454.715,33.425z M340.578,434.55v2.81H155.225v-2.81c0-14.991,12.207-27.198,27.221-27.198h130.91
		C328.377,407.352,340.578,419.559,340.578,434.55z"/>
	<path d="M255.377,86.873c-2.484-1.453-5.328-2.178-8.15-2.178c-1.424,0-2.842,0.178-4.23,0.549
		c-4.184,1.129-7.719,3.85-9.898,7.611l-19.83,34.313c-4.5,7.806-1.855,17.768,5.975,22.287l14.971,8.631
		c-0.195,1.347-0.373,2.679-0.553,4.021c2.922,2.631,5.57,5.554,7.559,9.048l15.775,27.295c5.055,8.792,6.377,18.996,3.728,28.885
		c-1.842,6.684-5.361,12.618-10.27,17.34c2.279,2.189,4.182,4.708,5.844,7.379l13.949-8.048c6.25,4.755,12.885,8.986,20.248,12.067
		v16.818c0,8.993,7.314,16.289,16.324,16.289h39.623c8.992,0,16.305-7.296,16.305-16.289v-16.818
		c7.363-3.081,14-7.313,20.234-12.067l14.914,8.591c2.506,1.443,5.332,2.188,8.17,2.188c1.391,0,2.779-0.187,4.182-0.551
		c4.166-1.121,7.768-3.857,9.918-7.611l19.809-34.319c4.506-7.799,1.842-17.783-5.975-22.288l-14.963-8.646
		c0.496-3.857,1.209-7.637,1.209-11.634c0-3.97-0.713-7.788-1.209-11.648l14.963-8.631c3.779-2.162,6.492-5.732,7.588-9.896
		c1.131-4.189,0.549-8.638-1.613-12.391l-19.809-34.303c-3.021-5.232-8.512-8.17-14.129-8.17c-2.779,0-5.57,0.702-8.141,2.186
		l-14.914,8.59c-6.234-4.762-12.906-8.992-20.234-12.059V66.612c0-9.009-7.313-16.324-16.305-16.324h-39.623
		c-9.01,0-16.324,7.315-16.324,16.324v16.801c-7.344,3.066-13.998,7.297-20.248,12.059L255.377,86.873z M326.629,110.551
		c32.633,0,59.174,26.546,59.174,59.183c0,32.64-26.541,59.192-59.174,59.192c-32.629,0-59.174-26.553-59.174-59.192
		C267.455,137.097,294,110.551,326.629,110.551z"/>
	<path d="M174.018,326.558v-13.359c5.846-2.432,11.111-5.779,16.086-9.576l11.82,6.806c1.98,1.163,4.195,1.761,6.471,1.761
		c1.115,0,2.23-0.162,3.311-0.443c3.311-0.904,6.168-3.077,7.861-6.032l15.777-27.252c3.568-6.176,1.432-14.111-4.766-17.674
		l-11.867-6.867c0.357-3.063,0.904-6.071,0.904-9.229c0-3.166-0.547-6.193-0.904-9.252l11.867-6.846
		c2.973-1.734,5.133-4.553,6.055-7.879c0.891-3.336,0.387-6.848-1.289-9.824l-15.777-27.237c-2.369-4.149-6.73-6.468-11.203-6.468
		c-2.215,0-4.41,0.548-6.439,1.735l-11.82,6.821c-4.975-3.787-10.256-7.145-16.086-9.589v-13.32c0-7.161-5.795-12.959-12.949-12.959
		h-31.447c-7.17,0-12.951,5.798-12.951,12.959v13.32c-5.814,2.444-11.127,5.802-16.064,9.589l-11.834-6.836
		c-1.973-1.148-4.184-1.721-6.428-1.721c-1.129,0-2.275,0.145-3.391,0.443c-3.311,0.881-6.117,3.037-7.861,6.007L55.35,210.891
		c-3.539,6.197-1.438,14.119,4.746,17.703l11.883,6.846c-0.354,3.059-0.906,6.086-0.906,9.252c0,3.157,0.553,6.166,0.906,9.218
		l-11.883,6.855c-6.184,3.567-8.285,11.503-4.746,17.696l15.742,27.252c1.744,2.955,4.551,5.128,7.861,6.032
		c1.1,0.281,2.23,0.443,3.342,0.443c2.279,0,4.49-0.598,6.477-1.761l11.805-6.806c4.967,3.797,10.279,7.145,16.094,9.576v13.359
		c0,7.137,5.781,12.941,12.951,12.941h31.447C168.223,339.5,174.018,333.695,174.018,326.558z M109.631,244.692
		c0-19.739,16.002-35.723,35.682-35.723c19.764,0,35.764,15.983,35.764,35.723c0,19.705-16,35.689-35.764,35.689
		C125.633,280.38,109.631,264.397,109.631,244.692z"/>
</g>
</svg>